<mxfile host="app.diagrams.net" agent="Mozilla/5.0 (Windows NT 10.0; Win64; x64) AppleWebKit/537.36 (KHTML, like Gecko) Chrome/135.0.0.0 Safari/537.36 OPR/120.0.0.0" version="28.1.2">
  <diagram name="React Frontend Architecture" id="wwEfVn5fOtd2N3GJzkSW">
    <mxGraphModel dx="1424" dy="712" grid="0" gridSize="10" guides="1" tooltips="1" connect="1" arrows="1" fold="1" page="0" pageScale="1" pageWidth="2336" pageHeight="1654" math="0" shadow="0">
      <root>
        <mxCell id="0" />
        <mxCell id="1" parent="0" />
        <mxCell id="g9STZ4kVmV70-Xz3QnFS-1" value="User" style="shape=ellipse;fillColor=#f5f5f5;strokeColor=#666666;fontColor=#333333;" vertex="1" parent="1">
          <mxGeometry x="306" y="126.25" width="60" height="42.5" as="geometry" />
        </mxCell>
        <mxCell id="g9STZ4kVmV70-Xz3QnFS-2" value="React Components&#xa; (feature-based)" style="shape=rectangle;rounded=1;fillColor=#dae8fc;strokeColor=#6c8ebf;" vertex="1" parent="1">
          <mxGeometry x="410" y="105" width="170" height="85" as="geometry" />
        </mxCell>
        <mxCell id="g9STZ4kVmV70-Xz3QnFS-3" value="React Hooks&#xa;(Logic and state)" style="shape=rectangle;rounded=1;fillColor=#dae8fc;strokeColor=#6c8ebf;" vertex="1" parent="1">
          <mxGeometry x="620" y="105" width="140" height="85" as="geometry" />
        </mxCell>
        <mxCell id="g9STZ4kVmV70-Xz3QnFS-4" value="Axios API Client" style="shape=rectangle;rounded=1;fillColor=#dae8fc;strokeColor=#6c8ebf;" vertex="1" parent="1">
          <mxGeometry x="800" y="104" width="130" height="87.5" as="geometry" />
        </mxCell>
        <mxCell id="g9STZ4kVmV70-Xz3QnFS-5" value="Backend &#xa;REST Microservices" style="shape=rectangle;rounded=1;fillColor=#e1d5e7;strokeColor=#9673a6;" vertex="1" parent="1">
          <mxGeometry x="968" y="105.5" width="150" height="85" as="geometry" />
        </mxCell>
        <mxCell id="g9STZ4kVmV70-Xz3QnFS-6" style="edgeStyle=orthogonalEdgeStyle;endArrow=block;" edge="1" parent="1" source="g9STZ4kVmV70-Xz3QnFS-1" target="g9STZ4kVmV70-Xz3QnFS-2">
          <mxGeometry relative="1" as="geometry" />
        </mxCell>
        <mxCell id="g9STZ4kVmV70-Xz3QnFS-7" style="edgeStyle=orthogonalEdgeStyle;endArrow=block;" edge="1" parent="1" source="g9STZ4kVmV70-Xz3QnFS-2" target="g9STZ4kVmV70-Xz3QnFS-3">
          <mxGeometry relative="1" as="geometry" />
        </mxCell>
        <mxCell id="g9STZ4kVmV70-Xz3QnFS-8" style="edgeStyle=orthogonalEdgeStyle;endArrow=block;" edge="1" parent="1" source="g9STZ4kVmV70-Xz3QnFS-3" target="g9STZ4kVmV70-Xz3QnFS-4">
          <mxGeometry relative="1" as="geometry" />
        </mxCell>
        <mxCell id="g9STZ4kVmV70-Xz3QnFS-9" style="edgeStyle=orthogonalEdgeStyle;endArrow=block;" edge="1" parent="1" source="g9STZ4kVmV70-Xz3QnFS-4" target="g9STZ4kVmV70-Xz3QnFS-5">
          <mxGeometry relative="1" as="geometry" />
        </mxCell>
      </root>
    </mxGraphModel>
  </diagram>
</mxfile>
